<svg width="900" height="1200" viewBox="0 0 900 1200" fill="none" xmlns="http://www.w3.org/2000/svg">
<rect width="900" height="1200" rx="42" fill="#EEF3F8"/>
<rect x="70" y="70" width="760" height="170" rx="32" fill="#061426"/>
<rect x="112" y="112" width="78" height="78" rx="6" fill="#fff"/>
<text x="151" y="160" text-anchor="middle" font-family="Inter, Arial" font-size="22" font-weight="900" fill="#D40B1F">LOGO</text>
<text x="220" y="130" font-family="Inter, Arial" font-size="34" font-weight="900" fill="#fff">Operations shift handover</text>
<text x="220" y="178" font-family="Inter, Arial" font-size="20" fill="#DDE8F6">Document: 101A</text>
<rect x="90" y="290" width="720" height="130" rx="18" fill="#fff" stroke="#E6C35F" stroke-width="4"/>
<text x="122" y="345" font-family="Inter, Arial" font-size="22" font-weight="800" fill="#132A44">Site: Coventry Warehouse</text>
<text x="122" y="386" font-family="Inter, Arial" font-size="22" font-weight="800" fill="#132A44">Shift: Nights</text>
<text x="500" y="345" font-family="Inter, Arial" font-size="22" font-weight="800" fill="#132A44">Date: 16 Jun 2026</text>
<text x="500" y="386" font-family="Inter, Arial" font-size="22" font-weight="800" fill="#132A44">Approved: 06:02</text>
<text x="90" y="500" font-family="Inter, Arial" font-size="28" font-weight="900" fill="#132A44">ATTENDANCE</text>
<line x1="90" y1="522" x2="810" y2="522" stroke="#DDAE36" stroke-width="4"/>
<rect x="90" y="560" width="720" height="120" rx="16" fill="#F7FAFD" stroke="#D8E0EA"/>
<text x="130" y="622" font-family="Inter, Arial" font-size="22" fill="#132A44">• Full team in today.</text>
<text x="130" y="662" font-family="Inter, Arial" font-size="22" fill="#132A44">• One clerk left early due to illness.</text>
<text x="90" y="754" font-family="Inter, Arial" font-size="28" font-weight="900" fill="#132A44">TASKS OUTSTANDING</text>
<line x1="90" y1="776" x2="810" y2="776" stroke="#DDAE36" stroke-width="4"/>
<rect x="90" y="814" width="720" height="120" rx="16" fill="#F7FAFD" stroke="#D8E0EA"/>
<text x="130" y="876" font-family="Inter, Arial" font-size="22" fill="#132A44">• Five returns still outstanding.</text>
<text x="90" y="1010" font-family="Inter, Arial" font-size="22" font-weight="800" fill="#132A44">APPROVAL INFORMATION</text>
<rect x="90" y="1036" width="720" height="84" rx="16" fill="#061426"/>
<text x="130" y="1088" font-family="Inter, Arial" font-size="20" fill="#fff">Approved by: Shift Supervisor · Status: APPROVED</text>
</svg>
